# xmcd CD database file
# Copyright (C) 1993-1998 Ti Kan
#
# Track frame offsets:
#	150
#	19235
#	48427
#	71035
#	96207
#	120052
#	138837
#	167352
#	187234
#
# Disc length: 2949 seconds
#
# Revision: 2
# Processed by: cddbd v1.4b41PL1 Copyright (c) Steve Scherf et al.
# Submitted via: NotifyCDPlayer(CDDB) 1.51.2
#
DISCID=720b8309
DTITLE=Howlin' Wolf - In Concert
DYEAR=1900
DGENRE=
TTITLE0=Shake It For Me
TTITLE1=Love Me
TTITLE2=Dust My Broom
TTITLE3=I Didn't Mean To Hurt Your Feelings
TTITLE4=Rockin' The Blues
TTITLE5=All My Life
TTITLE6=Goin' Down Slow
TTITLE7=Howlin' For My Darlin'
TTITLE8=Forty Four
EXTD=Howlin' Wolf a.k.a. Chester Arthur Burnett\nThis album a.k.a. The Colle
EXTD=ction
EXTT0=
EXTT1=
EXTT2=
EXTT3=
EXTT4=
EXTT5=
EXTT6=
EXTT7=
EXTT8=
PLAYORDER=
